<svg id="Layer_1" enable-background="new 0 0 512 512" height="512" viewBox="0 0 512 512" width="512" xmlns="http://www.w3.org/2000/svg"><g><path d="m108.4 287.552v138.925h132.6v-64.726l-47.416-74.199z"/><path d="m108.4 456.477h132.6v55.523h-132.6z"/><path d="m270.999 456.477h132.601v55.523h-132.601z"/><path d="m270.999 372.368h132.601v54.109h-132.601z"/><path d="m0 202.736h78.4v54.816h-78.4z"/><path d="m108.4 202.736h78.4v54.816h-78.4z"/><path d="m0 287.552h78.4v224.448h-78.4z"/><path d="m433.6 372.368h78.4v139.632h-78.4z"/><path d="m433.6 202.736h78.4v139.632h-78.4z"/><path d="m241.291 202.736h-24.491v65.433l47.415 74.199h139.385v-127.029l-74.85 74.807z"/><path d="m328.794 0c-56.67 0-102.701 46.032-102.701 102.612 0 27.42 10.681 53.196 30.075 72.578l72.582 72.542 72.582-72.541c19.394-19.383 30.074-45.159 30.074-72.578 0-56.581-46.031-102.613-102.612-102.613zm-.044 167.8c-35.944 0-65.188-29.243-65.188-65.188s29.243-65.188 65.188-65.188 65.188 29.244 65.188 65.188c0 35.945-29.244 65.188-65.188 65.188z"/><path d="m328.75 67.424c-19.402 0-35.188 15.786-35.188 35.188s15.785 35.188 35.188 35.188 35.188-15.785 35.188-35.188c0-19.402-15.786-35.188-35.188-35.188z"/></g></svg>